<?xml version="1.0" standalone="no"?>
<!DOCTYPE svg PUBLIC "-//W3C//DTD SVG 20010904//EN"
 "http://www.w3.org/TR/2001/REC-SVG-20010904/DTD/svg10.dtd">
<svg version="1.0" xmlns="http://www.w3.org/2000/svg"
 width="512.000000pt" height="512.000000pt" viewBox="0 0 512.000000 512.000000"
 preserveAspectRatio="xMidYMid meet">
<metadata>
Created by potrace 1.16, written by Peter Selinger 2001-2019
</metadata>
<g transform="translate(0.000000,512.000000) scale(0.100000,-0.100000)"
fill="#000000" stroke="none">
<path d="M1009 5096 c-153 -54 -265 -174 -313 -335 -14 -49 -16 -241 -16
-2010 0 -2065 -1 -1989 43 -2092 34 -78 135 -187 210 -226 17 -8 55 -25 86
-37 56 -21 63 -21 1036 -24 l980 -2 57 -78 c51 -69 57 -82 58 -126 0 -65 31
-128 73 -150 29 -16 76 -17 514 -14 l483 3 30 30 c37 37 37 37 125 557 71 425
79 530 49 675 -24 115 -53 189 -226 563 -221 479 -212 471 -530 478 l-198 4 0
1197 c0 770 -4 1212 -11 1240 -16 73 -58 149 -115 211 -67 71 -134 116 -215
141 -58 18 -107 19 -1057 19 l-997 0 -66 -24z m2011 -147 c121 -19 219 -97
260 -205 20 -54 20 -72 20 -1433 l0 -1379 -82 5 c-69 4 -93 1 -140 -17 -69
-26 -134 -86 -168 -155 l-25 -50 -3 -460 c-3 -476 1 -548 38 -653 11 -31 20
-58 20 -59 0 -2 -413 -2 -918 -1 l-917 3 -67 33 c-80 39 -139 102 -168 178
-20 54 -20 69 -20 1994 0 1925 0 1940 20 1994 40 105 139 186 251 205 79 13
1818 13 1899 0z m837 -2835 c21 -16 68 -107 191 -370 196 -421 212 -469 219
-624 5 -109 1 -138 -66 -530 -39 -228 -71 -418 -71 -422 0 -5 -182 -8 -405 -8
l-405 0 0 56 c0 53 -3 59 -80 166 -45 61 -99 148 -121 192 -65 134 -69 164
-69 656 0 417 1 436 20 468 60 98 196 94 248 -8 21 -43 22 -52 22 -376 0 -372
-1 -369 72 -381 32 -5 41 -1 68 25 l30 30 0 334 c0 284 -3 342 -17 388 -12 41
-17 104 -20 243 l-4 188 180 -3 c164 -3 182 -5 208 -24z"/>
<path d="M1422 4617 c-28 -29 -29 -86 -3 -118 l19 -24 636 0 c634 0 635 0 657
21 30 30 30 86 -1 119 l-23 25 -632 0 -632 0 -21 -23z"/>
<path d="M2121 4203 c-16 -14 -44 -106 -126 -410 -58 -216 -105 -404 -105
-418 0 -38 42 -75 83 -75 68 0 69 3 182 425 58 215 105 403 105 418 0 63 -89
101 -139 60z"/>
<path d="M1739 4097 c-36 -17 -338 -224 -371 -255 -21 -19 -28 -35 -28 -63 0
-44 7 -51 243 -236 140 -111 159 -123 195 -123 32 0 45 6 61 26 25 31 27 71 6
100 -8 12 -73 68 -145 124 -72 57 -127 106 -123 110 4 4 65 46 136 94 70 48
132 96 137 106 18 34 11 70 -19 101 -32 31 -52 35 -92 16z"/>
<path d="M2344 4100 c-45 -18 -67 -77 -44 -120 6 -11 71 -60 146 -111 107 -73
132 -95 122 -104 -7 -7 -70 -57 -139 -113 -70 -55 -129 -108 -133 -117 -11
-30 -6 -62 15 -89 16 -21 29 -26 62 -26 39 1 57 12 232 151 104 82 193 155
197 162 18 28 8 83 -19 109 -38 35 -349 247 -380 259 -28 11 -31 11 -59 -1z"/>
<path d="M1950 3143 c-33 -12 -60 -49 -80 -109 -15 -44 -27 -64 -38 -64 -9 -1
-44 -13 -77 -29 l-60 -27 -63 29 c-92 43 -117 36 -219 -66 -102 -102 -109
-127 -66 -219 l29 -63 -32 -73 c-18 -41 -36 -77 -40 -82 -5 -4 -32 -15 -60
-24 -28 -9 -62 -28 -75 -42 -22 -24 -24 -35 -27 -155 l-4 -129 35 -35 c21 -21
51 -38 81 -46 53 -13 50 -10 91 -104 l31 -70 -29 -63 c-43 -92 -35 -116 67
-220 101 -103 129 -111 221 -64 l59 29 65 -29 c36 -16 72 -33 80 -37 8 -4 23
-32 33 -62 10 -31 31 -66 48 -81 30 -27 33 -28 155 -28 122 0 125 1 156 28 18
16 38 50 49 82 10 30 25 58 32 62 7 4 42 20 78 36 l65 29 60 -29 c79 -38 120
-34 183 19 130 111 154 171 104 268 l-29 59 29 65 c16 36 32 72 36 79 4 7 32
22 62 32 32 11 66 31 82 49 27 31 28 34 28 156 0 122 -1 125 -27 155 -16 17
-51 38 -82 48 -30 10 -58 25 -62 33 -4 8 -21 43 -37 79 l-29 66 29 54 c24 45
29 64 25 99 -4 40 -13 53 -89 127 -104 103 -128 110 -220 67 l-63 -29 -75 33
c-80 34 -80 34 -105 105 -9 26 -30 59 -46 73 -29 24 -36 25 -147 24 -64 0
-124 -3 -132 -6z m185 -212 c24 -75 47 -97 123 -122 37 -12 87 -32 112 -45 57
-31 108 -30 169 0 l48 25 31 -32 30 -32 -23 -45 c-31 -59 -31 -113 -1 -171 14
-25 34 -75 46 -112 24 -75 46 -98 121 -122 49 -17 49 -17 49 -60 0 -43 0 -43
-49 -60 -75 -24 -97 -47 -121 -122 -12 -36 -32 -88 -46 -114 -30 -60 -30 -111
1 -169 l23 -45 -30 -32 -31 -32 -48 25 c-61 30 -107 30 -168 0 -26 -14 -78
-34 -114 -46 -75 -24 -98 -46 -122 -121 -17 -49 -17 -49 -60 -49 -43 0 -43 0
-60 49 -24 75 -47 97 -122 121 -37 12 -87 32 -112 46 -58 31 -109 31 -170 0
l-48 -25 -31 32 -30 32 23 45 c29 55 31 113 6 160 -10 19 -30 69 -45 110 -34
93 -45 105 -118 131 l-58 22 0 42 0 42 58 22 c73 26 84 38 117 130 15 40 35
88 46 105 26 43 24 110 -6 166 l-23 45 30 32 31 32 48 -25 c59 -29 122 -31
165 -5 17 11 65 31 105 46 92 33 104 44 130 117 l22 58 43 0 c42 0 43 0 59
-49z"/>
<path d="M1966 2629 c-115 -28 -224 -121 -279 -237 -30 -63 -32 -74 -32 -177
0 -103 2 -114 32 -177 44 -94 109 -160 202 -206 73 -36 78 -37 186 -37 108 0
113 1 186 37 93 46 158 112 202 206 30 63 32 74 32 177 0 103 -2 114 -32 177
-44 93 -109 160 -201 205 -67 34 -83 37 -166 40 -50 1 -108 -2 -130 -8z m196
-173 c99 -36 168 -134 168 -240 -1 -146 -111 -256 -254 -256 -232 1 -341 279
-173 441 64 63 173 86 259 55z"/>
<path d="M2004 1024 c-36 -8 -59 -42 -59 -86 0 -62 27 -78 130 -78 96 0 122
14 131 71 5 28 1 41 -19 64 -22 26 -31 29 -93 31 -38 1 -79 0 -90 -2z"/>
</g>
</svg>
