<?xml version="1.0" standalone="no"?>
<!DOCTYPE svg PUBLIC "-//W3C//DTD SVG 20010904//EN"
 "http://www.w3.org/TR/2001/REC-SVG-20010904/DTD/svg10.dtd">
<svg version="1.0" xmlns="http://www.w3.org/2000/svg"
 width="512.000000pt" height="512.000000pt" viewBox="0 0 512.000000 512.000000"
 preserveAspectRatio="xMidYMid meet">
<metadata>
Created by potrace 1.16, written by Peter Selinger 2001-2019
</metadata>
<g transform="translate(0.000000,512.000000) scale(0.100000,-0.100000)"
fill="#000000" stroke="none">
<path d="M475 4716 c-67 -21 -125 -56 -178 -104 -61 -58 -90 -103 -117 -181
-20 -60 -20 -78 -20 -1459 0 -1347 1 -1401 19 -1454 43 -125 140 -226 265
-276 37 -15 130 -18 908 -22 l867 -5 -203 -350 c-111 -193 -205 -360 -208
-373 -8 -30 9 -80 32 -92 25 -14 1415 -14 1440 0 23 12 40 61 32 92 -3 12 -97
180 -208 373 l-203 350 867 5 c778 4 871 7 908 22 125 50 222 151 265 276 18
53 19 107 19 1454 0 1387 0 1399 -21 1460 -38 114 -122 207 -237 261 l-67 32
-2060 2 c-1645 1 -2068 -1 -2100 -11z m4176 -188 c56 -33 94 -76 123 -138 21
-45 21 -52 24 -1187 l3 -1143 -2241 0 -2240 0 0 1103 c0 668 4 1125 10 1162
16 100 87 188 176 220 33 12 361 14 2069 12 l2030 -2 46 -27z m-1761 -3638
l188 -325 -259 -3 c-143 -1 -376 -1 -518 0 l-259 3 73 125 c40 69 125 216 190
328 l117 203 140 -3 140 -3 188 -325z"/>
<path d="M1670 4342 l-31 -31 3 -450 3 -450 23 -23 23 -23 442 -3 c476 -2 477
-2 506 50 13 23 14 42 3 132 -23 213 -113 402 -262 553 -161 162 -361 253
-592 270 l-87 6 -31 -31z"/>
<path d="M2942 4165 c-17 -8 -37 -26 -42 -40 -6 -15 -10 -121 -10 -236 0 -219
7 -258 45 -273 9 -3 120 -6 246 -6 l230 0 24 25 25 24 0 230 c0 229 0 230 -24
258 l-24 28 -219 2 c-173 2 -225 0 -251 -12z"/>
<path d="M1293 4085 c-371 -67 -663 -353 -740 -723 -25 -121 -14 -341 22 -452
100 -309 328 -532 637 -621 94 -27 288 -37 394 -20 423 69 740 418 770 849 7
88 6 91 -19 116 l-26 26 -396 0 -395 0 0 395 0 396 -25 24 c-21 22 -33 25 -87
24 -35 0 -95 -7 -135 -14z"/>
<path d="M3644 4078 c-47 -23 -57 -95 -19 -133 l24 -25 454 0 c444 0 455 0
481 21 32 26 36 84 7 120 l-19 24 -454 2 c-300 1 -460 -2 -474 -9z"/>
<path d="M3621 3834 c-12 -15 -21 -39 -21 -54 0 -15 9 -39 21 -54 l20 -26 465
0 c451 0 465 1 484 20 13 13 20 33 20 60 0 27 -7 47 -20 60 -19 19 -33 20
-484 20 l-465 0 -20 -26z"/>
<path d="M2922 3440 c-12 -11 -24 -31 -27 -43 -4 -13 -5 -121 -3 -241 3 -215
3 -218 27 -237 21 -18 42 -19 261 -19 l239 0 20 26 c20 25 21 39 21 256 l0
229 -25 24 -24 25 -234 0 c-220 0 -234 -1 -255 -20z"/>
<path d="M3663 3373 c-30 -6 -63 -49 -63 -83 0 -15 9 -39 21 -54 l20 -26 465
0 c451 0 465 1 484 20 22 22 27 78 10 110 -6 11 -27 24 -48 30 -36 10 -839 13
-889 3z"/>
<path d="M3625 3125 c-41 -40 -27 -113 24 -135 18 -7 166 -10 475 -8 l448 3
19 24 c29 36 25 94 -7 120 -26 21 -37 21 -481 21 l-454 0 -24 -25z"/>
<path d="M2923 2726 l-28 -24 0 -237 0 -237 28 -24 c28 -24 30 -24 248 -24
223 0 249 4 276 39 13 17 19 454 7 486 -15 39 -54 45 -283 45 -218 0 -220 0
-248 -24z"/>
<path d="M3625 2635 c-35 -34 -33 -78 5 -116 l29 -30 456 3 457 3 19 24 c27
33 25 92 -4 119 -23 22 -25 22 -481 22 l-457 0 -24 -25z"/>
<path d="M3644 2428 c-47 -23 -57 -95 -19 -133 l24 -25 454 0 c444 0 455 0
481 21 32 26 36 84 7 120 l-19 24 -454 2 c-300 1 -460 -2 -474 -9z"/>
</g>
</svg>
