<?xml version="1.0" standalone="no"?>
<!DOCTYPE svg PUBLIC "-//W3C//DTD SVG 20010904//EN"
 "http://www.w3.org/TR/2001/REC-SVG-20010904/DTD/svg10.dtd">
<svg version="1.0" xmlns="http://www.w3.org/2000/svg"
 width="512.000000pt" height="512.000000pt" viewBox="0 0 512.000000 512.000000"
 preserveAspectRatio="xMidYMid meet">
<metadata>
Created by potrace 1.16, written by Peter Selinger 2001-2019
</metadata>
<g transform="translate(0.000000,512.000000) scale(0.100000,-0.100000)"
fill="#000000" stroke="none">
<path d="M343 5021 c-104 -38 -180 -107 -231 -211 l-27 -55 0 -995 0 -995 29
-60 c38 -77 114 -153 191 -191 l60 -29 458 -3 457 -3 0 -239 0 -240 -72 0
c-85 0 -137 -20 -185 -71 -46 -49 -63 -97 -63 -179 l0 -70 -420 0 c-407 0
-421 -1 -440 -20 -20 -20 -20 -33 -20 -780 0 -747 0 -760 20 -780 20 -20 33
-20 2460 -20 2427 0 2440 0 2460 20 20 20 20 33 20 780 0 747 0 760 -20 780
-16 16 -33 20 -80 20 l-60 0 0 380 c0 444 6 420 -100 420 l-60 0 0 420 c0 407
-1 421 -20 440 -14 14 -33 20 -61 20 -39 0 -48 -6 -140 -97 l-99 -97 -99 97
c-93 92 -100 97 -141 97 -41 0 -48 -5 -141 -97 l-99 -97 -99 97 c-92 91 -101
97 -140 97 -28 0 -47 -6 -61 -20 -19 -19 -20 -33 -20 -440 l0 -420 -60 0
c-106 0 -100 24 -100 -420 l0 -380 -440 0 -440 0 0 70 c0 82 -17 130 -63 179
-48 51 -100 71 -184 71 l-73 0 0 240 0 239 458 3 457 3 60 29 c77 38 153 114
191 191 l29 60 0 995 0 995 -29 60 c-38 77 -114 153 -191 191 l-60 29 -1380 2
c-1326 2 -1382 2 -1432 -16z m2782 -164 c54 -24 103 -73 129 -127 21 -45 21
-54 24 -827 l3 -783 -1521 0 -1521 0 3 783 c3 728 4 785 21 822 34 76 104 132
182 146 22 4 625 6 1340 5 1229 -1 1302 -2 1340 -19z m1136 -1802 c91 -90 99
-95 138 -95 38 0 49 6 102 57 l59 56 0 -296 0 -297 -400 0 -400 0 0 297 0 296
59 -56 c53 -51 64 -57 102 -57 40 0 47 5 138 95 53 52 98 95 100 95 3 0 48
-43 102 -95z m-985 -162 c-9 -86 -33 -139 -83 -184 -75 -68 15 -64 -1433 -64
-1448 0 -1358 -4 -1433 64 -50 45 -74 98 -83 184 l-7 67 1523 0 1523 0 -7 -67z
m-1196 -653 l0 -240 -320 0 -320 0 0 240 0 240 320 0 320 0 0 -240z m2640
-240 l0 -320 -560 0 -560 0 0 320 0 320 560 0 560 0 0 -320z m-2376 -174 c36
-15 56 -54 56 -112 l0 -34 -640 0 -640 0 0 34 c0 56 20 97 54 112 46 20 1122
20 1170 0z m2536 -946 l0 -640 -2320 0 -2320 0 0 640 0 640 2320 0 2320 0 0
-640z"/>
<path d="M1680 4636 l0 -84 -29 -7 c-41 -9 -116 -65 -151 -112 -42 -57 -60
-115 -60 -194 0 -180 115 -302 305 -323 32 -4 73 -15 90 -24 133 -78 79 -282
-75 -282 -74 0 -150 64 -150 128 0 21 -4 22 -85 22 l-85 0 0 -34 c0 -46 24
-110 60 -159 35 -47 110 -103 151 -112 l29 -7 0 -84 0 -84 80 0 80 0 0 84 0
84 29 7 c41 9 116 65 151 112 42 57 60 115 60 194 0 180 -115 302 -305 323
-105 12 -165 68 -165 155 0 153 200 209 280 79 11 -18 20 -43 20 -55 0 -22 4
-23 85 -23 l85 0 0 34 c0 46 -24 110 -60 159 -35 47 -110 103 -151 112 l-29 7
0 84 0 84 -80 0 -80 0 0 -84z"/>
<path d="M3920 2720 l0 -80 240 0 240 0 0 80 0 80 -240 0 -240 0 0 -80z"/>
<path d="M4400 2080 l0 -80 80 0 80 0 0 80 0 80 -80 0 -80 0 0 -80z"/>
<path d="M420 1340 c-19 -19 -20 -33 -20 -460 0 -427 1 -441 20 -460 20 -20
33 -20 1180 -20 1147 0 1160 0 1180 20 19 19 20 33 20 460 0 427 -1 441 -20
460 -20 20 -33 20 -1180 20 -1147 0 -1160 0 -1180 -20z m560 -291 c41 -83 83
-155 92 -160 22 -12 1034 -12 1056 0 9 5 51 77 92 160 l74 151 173 0 173 0 0
-320 0 -320 -1040 0 -1040 0 0 320 0 320 173 0 173 0 74 -151z m1120 146 c0
-2 -17 -38 -37 -80 l-37 -75 -426 0 -426 0 -37 75 c-20 42 -37 78 -37 80 0 3
225 5 500 5 275 0 500 -2 500 -5z"/>
<path d="M2980 1340 c-19 -19 -20 -33 -20 -220 0 -187 1 -201 20 -220 19 -19
33 -20 220 -20 187 0 201 1 220 20 19 19 20 33 20 220 0 187 -1 201 -20 220
-19 19 -33 20 -220 20 -187 0 -201 -1 -220 -20z m300 -220 l0 -80 -80 0 -80 0
0 80 0 80 80 0 80 0 0 -80z"/>
<path d="M3620 1340 c-19 -19 -20 -33 -20 -220 0 -187 1 -201 20 -220 19 -19
33 -20 220 -20 187 0 201 1 220 20 19 19 20 33 20 220 0 187 -1 201 -20 220
-19 19 -33 20 -220 20 -187 0 -201 -1 -220 -20z m300 -220 l0 -80 -80 0 -80 0
0 80 0 80 80 0 80 0 0 -80z"/>
<path d="M4260 1340 c-19 -19 -20 -33 -20 -220 0 -187 1 -201 20 -220 19 -19
33 -20 220 -20 187 0 201 1 220 20 19 19 20 33 20 220 0 187 -1 201 -20 220
-19 19 -33 20 -220 20 -187 0 -201 -1 -220 -20z m300 -220 l0 -80 -80 0 -80 0
0 80 0 80 80 0 80 0 0 -80z"/>
<path d="M2960 480 l0 -80 880 0 880 0 0 80 0 80 -880 0 -880 0 0 -80z"/>
<path d="M4240 4040 l0 -280 80 0 80 0 0 280 0 280 -80 0 -80 0 0 -280z"/>
<path d="M3920 3840 l0 -320 80 0 80 0 0 320 0 320 -80 0 -80 0 0 -320z"/>
</g>
</svg>
