<?xml version="1.0" standalone="no"?>
<!DOCTYPE svg PUBLIC "-//W3C//DTD SVG 20010904//EN"
 "http://www.w3.org/TR/2001/REC-SVG-20010904/DTD/svg10.dtd">
<svg version="1.0" xmlns="http://www.w3.org/2000/svg"
 width="340.000000pt" height="251.000000pt" viewBox="0 0 340.000000 251.000000"
 preserveAspectRatio="xMidYMid meet">
<metadata>
Created by potrace 1.16, written by Peter Selinger 2001-2019
</metadata>
<g transform="translate(0.000000,251.000000) scale(0.100000,-0.100000)"
fill="#000000" stroke="none">
<path d="M0 1254 l0 -1256 333 5 c182 3 388 10 457 16 959 77 1636 165 2373
307 l237 46 0 1069 0 1069 -1700 0 -1700 0 0 -1256z m240 -36 c24 -69 110
-321 110 -324 0 -2 -11 -4 -24 -4 -19 0 -26 8 -36 45 l-13 46 -80 -3 -80 -3
-15 -42 c-11 -34 -18 -43 -37 -43 -23 0 -23 2 37 180 l60 180 33 0 c28 0 35
-5 45 -32z m372 5 c25 -23 28 -34 28 -87 0 -51 -4 -64 -27 -88 -25 -26 -33
-28 -100 -28 l-73 0 0 -65 c0 -58 -2 -65 -20 -65 -19 0 -20 7 -20 180 l0 180
92 0 c86 0 94 -2 120 -27z m322 -4 c25 -29 26 -36 26 -152 0 -118 -1 -122 -27
-149 -25 -26 -32 -28 -113 -28 -78 0 -89 2 -109 24 -20 22 -22 33 -22 157 0
132 1 134 26 157 23 19 37 22 110 22 81 0 84 -1 109 -31z m136 -129 l0 -160
90 0 c83 0 90 -1 90 -20 0 -19 -7 -20 -110 -20 l-110 0 0 180 c0 173 1 180 20
180 19 0 20 -7 20 -160z m462 133 c28 -27 28 -27 28 -157 0 -119 -2 -132 -22
-153 -19 -21 -31 -23 -108 -23 -81 0 -88 2 -113 28 -26 27 -27 31 -27 152 0
121 1 125 27 152 25 26 32 28 107 28 73 0 82 -2 108 -27z m827 4 c13 -15 19
-30 15 -40 -8 -22 -17 -21 -39 3 -14 16 -31 20 -80 20 -34 0 -66 -5 -73 -12
-8 -8 -12 -51 -12 -128 0 -77 4 -120 12 -128 7 -7 40 -12 77 -12 51 0 69 4 86
20 20 19 23 19 35 5 11 -13 9 -20 -10 -40 -21 -23 -31 -25 -109 -25 -73 0 -88
3 -108 22 -22 20 -23 28 -23 159 0 137 0 138 26 158 22 17 41 21 104 21 67 0
79 -3 99 -23z m323 -4 c28 -27 28 -28 28 -152 0 -122 -1 -126 -27 -153 -25
-26 -32 -28 -112 -28 -73 0 -88 3 -108 22 -22 20 -23 29 -23 152 0 127 1 130
27 158 25 26 32 28 107 28 73 0 82 -2 108 -27z m330 -10 l38 -37 0 -105 0
-105 -37 -38 -37 -38 -98 0 -98 0 0 173 c0 96 3 177 7 180 3 4 47 7 97 7 l90
0 38 -37z m348 17 c0 -19 -7 -20 -95 -20 l-95 0 0 -55 0 -55 85 0 c78 0 85 -2
85 -20 0 -18 -7 -20 -85 -20 l-85 0 0 -65 0 -65 95 0 c88 0 95 -1 95 -20 0
-19 -7 -20 -120 -20 l-120 0 0 173 c0 96 3 177 7 180 3 4 57 7 120 7 106 0
113 -1 113 -20z"/>
<path d="M447 1203 c-4 -3 -7 -37 -7 -75 l0 -68 63 0 c36 0 68 5 75 12 7 7 12
35 12 63 0 28 -5 56 -12 63 -13 13 -120 17 -131 5z"/>
<path d="M742 1198 c-17 -17 -17 -239 0 -256 7 -7 40 -12 78 -12 38 0 71 5 78
12 17 17 17 239 0 256 -7 7 -40 12 -78 12 -38 0 -71 -5 -78 -12z"/>
<path d="M1352 1198 c-8 -8 -12 -51 -12 -128 0 -77 4 -120 12 -128 7 -7 40
-12 78 -12 38 0 71 5 78 12 8 8 12 50 12 123 0 136 -6 145 -96 145 -33 0 -65
-5 -72 -12z"/>
<path d="M2497 1192 c-14 -15 -17 -40 -17 -128 0 -72 4 -114 12 -122 16 -16
140 -16 156 0 17 17 17 239 0 256 -7 7 -39 12 -73 12 -47 0 -66 -4 -78 -18z"/>
<path d="M2830 1070 l0 -140 62 0 c54 0 66 4 90 27 26 25 28 32 28 112 0 79
-2 87 -27 113 -24 25 -34 28 -90 28 l-63 0 0 -140z"/>
</g>
</svg>
