<?xml version="1.0" standalone="no"?>
<!DOCTYPE svg PUBLIC "-//W3C//DTD SVG 20010904//EN"
 "http://www.w3.org/TR/2001/REC-SVG-20010904/DTD/svg10.dtd">
<svg version="1.0" xmlns="http://www.w3.org/2000/svg"
 width="512.000000pt" height="512.000000pt" viewBox="0 0 512.000000 512.000000"
 preserveAspectRatio="xMidYMid meet">
<metadata>
Created by potrace 1.16, written by Peter Selinger 2001-2019
</metadata>
<g transform="translate(0.000000,512.000000) scale(0.100000,-0.100000)"
fill="#000000" stroke="none">
<path d="M353 5026 c-100 -32 -190 -113 -241 -216 l-27 -55 -3 -324 c-3 -334
0 -372 38 -475 43 -113 165 -263 257 -314 15 -9 14 -13 -11 -42 -15 -18 -42
-63 -61 -100 -69 -137 -65 -42 -65 -1557 l0 -1370 24 -45 24 -46 -24 -48 c-29
-57 -33 -154 -8 -212 20 -49 70 -100 119 -123 39 -18 120 -19 2300 -19 2238 0
2260 0 2293 20 18 11 41 34 52 52 19 32 20 52 20 568 0 516 -1 536 -20 568
-11 18 -34 41 -52 52 -32 19 -52 20 -728 20 -676 0 -696 -1 -728 -20 -18 -11
-41 -34 -52 -52 -19 -32 -20 -52 -20 -540 l0 -508 -80 0 -80 0 0 508 c0 488
-1 508 -20 540 -11 18 -34 41 -52 52 -32 19 -52 20 -728 20 -676 0 -696 -1
-728 -20 -18 -11 -41 -34 -52 -52 -19 -32 -20 -52 -20 -540 l0 -508 -162 0
-163 0 3 72 c3 61 -1 81 -21 121 l-24 47 23 47 24 46 0 474 0 473 1788 0
c1766 0 1787 0 1820 20 18 11 41 34 52 52 19 32 20 52 20 728 0 676 -1 696
-20 728 -11 18 -34 41 -52 52 -32 19 -52 20 -728 20 -676 0 -696 -1 -728 -20
-18 -11 -41 -34 -52 -52 -19 -32 -20 -52 -20 -540 l0 -508 -80 0 -80 0 0 508
c0 488 -1 508 -20 540 -11 18 -34 41 -52 52 -32 19 -52 20 -620 20 l-588 0 0
80 0 80 1468 0 c1446 0 1467 0 1500 20 18 11 41 34 52 52 19 32 20 52 20 728
0 676 -1 696 -20 728 -11 18 -34 41 -52 52 -32 19 -52 20 -728 20 -676 0 -696
-1 -728 -20 -18 -11 -41 -34 -52 -52 -19 -32 -20 -52 -20 -540 l0 -508 -80 0
-80 0 0 508 c0 488 -1 508 -20 540 -11 18 -34 41 -52 52 -32 19 -52 20 -728
20 -676 0 -696 -1 -728 -20 -18 -11 -41 -34 -52 -52 -19 -32 -20 -52 -20 -540
l0 -508 -255 0 c-140 0 -255 2 -255 4 0 2 7 23 15 46 11 32 15 90 15 236 l0
194 108 0 c121 0 156 13 192 72 17 29 20 51 20 168 0 116 -3 139 -20 167 -34
57 -62 67 -188 73 l-115 5 -12 42 c-29 98 -111 190 -215 241 l-55 27 -260 2
c-196 2 -270 -1 -302 -11z m532 -170 c46 -20 100 -68 121 -108 l15 -28 -148 0
c-140 0 -150 -1 -183 -24 -46 -31 -56 -51 -89 -182 l-27 -109 -168 -3 -169 -2
5 142 c5 159 17 200 71 256 69 72 109 81 352 78 145 -2 188 -6 220 -20z m1275
-296 l0 -160 320 0 320 0 0 160 0 160 160 0 160 0 0 -480 0 -480 -640 0 -640
0 0 480 0 480 160 0 160 0 0 -160z m480 80 l0 -80 -160 0 -160 0 0 80 0 80
160 0 160 0 0 -80z m1280 -80 l0 -160 320 0 320 0 0 160 0 160 160 0 160 0 0
-480 0 -480 -640 0 -640 0 0 480 0 480 160 0 160 0 0 -160z m480 80 l0 -80
-160 0 -160 0 0 80 0 80 160 0 160 0 0 -80z m-3040 -160 l0 -80 -305 0 c-168
0 -305 3 -305 6 0 7 29 123 35 142 3 9 70 12 290 12 l285 0 0 -80z m-960 -437
l0 -196 -25 23 c-67 63 -118 184 -128 303 l-6 67 79 0 80 0 0 -197z m640 45
c0 -84 -5 -171 -10 -192 -18 -81 -71 -122 -168 -132 l-62 -7 0 -138 c0 -145
-4 -169 -26 -169 -8 0 -59 60 -114 133 l-100 134 0 261 0 262 240 0 240 0 0
-152z m3840 -568 l0 -80 -1786 0 c-1321 0 -1791 -3 -1807 -11 -18 -11 -24 -8
-46 22 -14 19 -51 60 -84 92 l-58 57 1890 0 1891 0 0 -80z m-4305 -110 c79
-106 116 -130 200 -130 62 0 86 9 128 49 37 34 57 72 57 111 0 16 4 30 9 30
26 0 133 -116 161 -173 38 -80 70 -257 70 -394 l0 -103 -67 0 c-92 0 -187 17
-235 41 -86 44 -154 139 -165 230 l-6 49 -83 0 -84 0 0 -43 c0 -174 149 -361
331 -418 53 -16 93 -19 300 -19 265 0 303 -7 315 -54 11 -44 -4 -76 -41 -92
-42 -17 -350 -20 -488 -4 -268 31 -486 221 -553 481 -23 90 -23 284 0 364 14
47 72 165 82 165 1 0 32 -41 69 -90z m1265 -450 l0 -320 -83 0 c-78 0 -84 2
-95 24 -19 42 -76 99 -117 117 -27 13 -64 19 -112 19 l-73 0 0 240 0 240 240
0 240 0 0 -320z m320 -160 l0 -160 320 0 320 0 0 160 0 160 160 0 160 0 0
-480 0 -480 -640 0 -640 0 0 240 0 240 28 0 c37 0 88 33 112 72 18 30 20 51
20 221 l0 187 80 0 80 0 0 -160z m480 80 l0 -80 -160 0 -160 0 0 80 0 80 160
0 160 0 0 -80z m1280 -80 l0 -160 320 0 320 0 0 160 0 160 160 0 160 0 0 -480
0 -480 -640 0 -640 0 0 480 0 480 160 0 160 0 0 -160z m480 80 l0 -80 -160 0
-160 0 0 80 0 80 160 0 160 0 0 -80z m-3817 -422 c148 -100 278 -138 479 -138
l138 0 0 -160 0 -160 -400 0 -400 0 0 314 0 314 63 -65 c34 -36 88 -83 120
-105z m1097 -218 l0 -240 -160 0 -160 0 0 159 0 159 84 3 c75 4 89 8 128 34
23 17 57 52 73 77 17 26 31 47 33 47 1 1 2 -107 2 -239z m-480 -995 c0 -659 1
-652 -60 -674 -18 -6 -84 -11 -146 -11 l-114 0 0 480 0 480 -80 0 -80 0 0
-480 0 -480 -115 0 c-144 0 -179 12 -195 67 -7 26 -10 174 -8 466 l3 429 53
18 c126 44 217 147 258 288 3 9 60 12 244 12 l240 0 0 -595z m3680 515 l0 -80
-1760 0 -1760 0 0 80 0 80 1760 0 1760 0 0 -80z m-2720 -720 l0 -160 320 0
320 0 0 160 0 160 160 0 160 0 0 -480 0 -480 -640 0 -640 0 0 480 0 480 160 0
160 0 0 -160z m480 80 l0 -80 -160 0 -160 0 0 80 0 80 160 0 160 0 0 -80z
m1280 -80 l0 -160 320 0 320 0 0 160 0 160 160 0 160 0 0 -480 0 -480 -640 0
-640 0 0 480 0 480 160 0 160 0 0 -160z m480 80 l0 -80 -160 0 -160 0 0 80 0
80 160 0 160 0 0 -80z m-3680 -800 l0 -80 -115 0 c-166 0 -211 25 -191 106 11
40 55 53 189 54 l117 0 0 -80z m425 66 c37 -16 52 -48 41 -92 -11 -40 -58 -54
-191 -54 l-115 0 0 80 0 80 115 0 c78 0 127 -5 150 -14z"/>
</g>
</svg>
