<?xml version="1.0" standalone="no"?>
<!DOCTYPE svg PUBLIC "-//W3C//DTD SVG 20010904//EN"
 "http://www.w3.org/TR/2001/REC-SVG-20010904/DTD/svg10.dtd">
<svg version="1.0" xmlns="http://www.w3.org/2000/svg"
 width="512.000000pt" height="512.000000pt" viewBox="0 0 512.000000 512.000000"
 preserveAspectRatio="xMidYMid meet">
<metadata>
Created by potrace 1.16, written by Peter Selinger 2001-2019
</metadata>
<g transform="translate(0.000000,512.000000) scale(0.100000,-0.100000)"
fill="#000000" stroke="none">
<path d="M2507 5012 c-10 -10 -17 -40 -19 -76 l-3 -58 -52 -20 c-60 -22 -132
-87 -162 -146 -43 -85 -43 -219 0 -304 30 -58 101 -123 164 -149 l55 -23 0
-93 c0 -68 -3 -93 -12 -93 -30 0 -119 -51 -158 -90 -104 -104 -126 -264 -55
-401 l24 -46 -1084 -523 c-597 -288 -1091 -530 -1100 -540 -13 -15 -15 -136
-15 -1027 0 -985 0 -1010 19 -1027 22 -20 1364 -306 1435 -306 22 0 558 65
1191 145 632 81 1397 177 1699 215 381 48 556 74 572 85 l24 15 0 874 c0 819
-1 874 -17 888 -10 8 -378 210 -818 448 -440 238 -929 503 -1086 589 l-286
155 23 38 c26 40 54 135 54 179 0 36 -28 68 -65 75 -43 8 -85 -26 -85 -69 0
-32 -26 -97 -52 -131 -14 -18 -16 -18 -60 8 -56 33 -95 33 -158 1 l-49 -25
-25 43 c-34 57 -40 94 -27 145 21 78 101 141 179 142 18 0 40 8 52 20 18 18
20 33 20 163 l0 143 55 23 c103 43 176 136 193 245 11 68 -1 153 -29 208 -30
59 -102 124 -162 146 l-52 20 -3 58 c-4 71 -21 94 -72 94 -23 0 -43 -7 -53
-18z m158 -316 c44 -34 65 -79 65 -141 0 -55 -18 -93 -60 -129 -65 -54 -155
-54 -220 0 -43 37 -60 75 -60 137 0 44 6 62 29 94 40 55 83 74 153 70 43 -2
65 -10 93 -31z m465 -1750 c270 -241 490 -440 488 -441 -3 -2 -1806 225 -1876
236 -19 3 44 62 355 326 l378 321 82 -1 83 -2 490 -439z m-1085 276 c-6 -5
-130 -111 -277 -236 l-267 -226 -357 -75 c-196 -42 -359 -74 -360 -72 -3 3
1252 613 1266 616 2 1 0 -3 -5 -7z m1820 -457 c374 -202 684 -371 688 -375 16
-14 -652 77 -670 91 -41 33 -763 681 -763 686 0 2 15 -4 33 -15 17 -11 338
-185 712 -387z m-2407 -1922 l-3 -589 -315 66 -315 67 0 1038 0 1039 315 66
315 66 3 -582 c1 -321 1 -847 0 -1171z m981 1657 c432 -54 1146 -145 1586
-200 440 -55 815 -103 833 -106 l32 -6 0 -763 0 -763 -37 -6 c-21 -4 -360 -47
-753 -96 -393 -50 -1105 -140 -1581 -200 -477 -61 -876 -110 -888 -110 l-21 0
0 1175 0 1175 22 0 c12 0 375 -45 807 -100z m-1769 -1075 c0 -553 -2 -1005 -5
-1005 -2 0 -99 20 -215 45 -116 25 -213 45 -215 45 -3 0 -5 411 -5 914 l0 915
58 11 c31 7 125 27 207 45 83 19 156 34 163 34 9 1 12 -206 12 -1004z"/>
<path d="M2507 4612 c-24 -26 -22 -85 3 -107 48 -43 120 -10 120 55 0 23 -7
43 -18 53 -25 23 -85 22 -105 -1z"/>
<path d="M964 1919 c-18 -20 -19 -43 -19 -494 0 -451 1 -474 19 -494 25 -27
86 -29 109 -3 15 17 17 66 17 499 0 452 -1 481 -18 496 -27 24 -85 22 -108 -4z"/>
<path d="M1783 2440 c-12 -5 -26 -18 -32 -29 -15 -28 -15 -1944 0 -1972 5 -11
21 -24 34 -29 18 -7 265 21 857 96 2163 274 2068 261 2088 279 19 18 20 36 20
640 0 604 -1 622 -20 640 -20 18 -25 19 -2055 274 -440 56 -816 103 -835 106
-19 2 -45 0 -57 -5z m207 -165 c36 -4 73 -9 83 -11 16 -5 17 -54 17 -839 0
-785 -1 -834 -17 -839 -10 -2 -47 -7 -83 -11 -36 -4 -73 -9 -82 -11 -17 -5
-18 41 -18 861 0 820 1 866 18 861 9 -2 46 -7 82 -11z m373 -47 l97 -12 0
-791 0 -791 -97 -12 c-54 -7 -104 -12 -110 -12 -10 0 -13 170 -13 815 0 645 3
815 13 815 6 0 56 -5 110 -12z m455 -58 c18 0 18 -1490 0 -1490 -7 -1 -57 -7
-110 -14 l-98 -12 0 771 0 771 98 -12 c53 -7 103 -13 110 -14z m249 -30 c43
-6 88 -13 101 -15 l22 -5 0 -695 0 -695 -22 -5 c-20 -4 -172 -25 -184 -25 -2
0 -4 326 -4 725 0 399 2 725 4 725 3 0 40 -5 83 -10z m399 -52 l94 -11 0 -652
0 -652 -94 -11 c-52 -7 -102 -12 -110 -12 -14 0 -16 70 -16 675 0 605 2 675
16 675 8 0 58 -5 110 -12z m339 -43 c33 -3 75 -9 93 -12 l32 -5 0 -603 0 -603
-32 -5 c-18 -3 -60 -9 -93 -12 -33 -4 -68 -9 -77 -11 -17 -5 -18 30 -18 631 0
601 1 636 18 631 9 -2 44 -7 77 -11z m395 -49 l85 -11 0 -560 0 -560 -85 -11
c-47 -7 -93 -13 -102 -13 -17 -1 -18 33 -18 584 0 551 1 585 18 584 9 0 55 -6
102 -13z m403 -53 c4 -2 7 -235 7 -518 0 -283 -3 -516 -7 -518 -5 -3 -43 -8
-85 -12 l-78 -7 0 537 0 537 78 -7 c42 -4 80 -9 85 -12z"/>
<path d="M439 1871 l-24 -19 -3 -410 c-2 -259 1 -419 7 -436 19 -48 86 -59
125 -20 14 14 16 67 16 437 0 232 -4 427 -8 433 -10 16 -48 34 -70 34 -11 0
-30 -9 -43 -19z"/>
</g>
</svg>
