<?xml version="1.0" standalone="no"?>
<!DOCTYPE svg PUBLIC "-//W3C//DTD SVG 20010904//EN"
 "http://www.w3.org/TR/2001/REC-SVG-20010904/DTD/svg10.dtd">
<svg version="1.0" xmlns="http://www.w3.org/2000/svg"
 width="512.000000pt" height="512.000000pt" viewBox="0 0 512.000000 512.000000"
 preserveAspectRatio="xMidYMid meet">
<metadata>
Created by potrace 1.16, written by Peter Selinger 2001-2019
</metadata>
<g transform="translate(0.000000,512.000000) scale(0.100000,-0.100000)"
fill="#000000" stroke="none">
<path d="M1780 4860 c-20 -20 -20 -33 -20 -560 l0 -540 -220 0 c-207 0 -221
-1 -240 -20 -19 -19 -20 -33 -20 -480 l0 -460 -220 0 c-207 0 -221 -1 -240
-20 -19 -19 -20 -33 -20 -400 l0 -380 -220 0 c-207 0 -221 -1 -240 -20 -20
-20 -20 -33 -20 -823 l0 -804 -80 -74 c-76 -71 -80 -77 -80 -117 0 -29 6 -48
21 -63 51 -51 -15 -89 1649 960 850 536 1561 984 1581 997 l36 22 114 -100
c250 -221 246 -218 288 -218 77 0 67 -43 200 845 124 837 125 842 81 865 -10
6 -33 10 -50 10 -24 0 -1417 -328 -1513 -356 -32 -10 -57 -46 -57 -83 0 -33
11 -47 147 -179 l148 -142 -200 -194 -200 -193 -5 1259 c-5 1232 -5 1260 -24
1274 -16 11 -74 14 -298 14 -265 0 -279 -1 -298 -20z m460 -1408 l0 -1267 -92
-90 c-51 -50 -123 -119 -160 -155 l-68 -64 0 1422 0 1422 160 0 160 0 0 -1268z
m-480 -790 l0 -938 -154 -147 c-85 -81 -157 -147 -160 -147 -3 0 -6 488 -6
1085 l0 1085 160 0 160 0 0 -938z m2213 606 c-12 -72 -183 -1235 -183 -1246 0
-7 -66 46 -147 118 -132 116 -152 130 -185 130 -31 0 -205 -107 -1195 -731
-637 -403 -1194 -754 -1238 -781 l-80 -50 45 45 c25 24 466 444 980 932 1174
1115 1045 986 1045 1036 0 40 -5 45 -124 158 l-123 116 604 147 c331 80 604
147 604 147 1 1 0 -9 -3 -21z m-2693 -1313 l0 -685 -107 -103 c-60 -57 -132
-125 -160 -151 l-53 -49 0 837 0 836 160 0 160 0 0 -685z m-480 -629 l0 -515
-102 -98 c-57 -55 -129 -123 -160 -153 l-58 -53 0 667 0 666 160 0 160 0 0
-514z"/>
<path d="M4158 4865 c-220 -55 -405 -239 -462 -462 -20 -77 -20 -238 -1 -322
40 -166 167 -329 321 -409 102 -52 183 -72 304 -72 121 0 202 20 304 72 154
80 281 243 321 409 20 85 19 245 -1 323 -38 145 -139 288 -265 372 -112 74
-190 98 -339 101 -83 1 -144 -2 -182 -12z m292 -172 c81 -22 127 -49 192 -111
101 -96 148 -205 148 -342 0 -263 -207 -470 -470 -470 -138 0 -249 49 -348
154 -83 88 -122 188 -122 316 0 132 39 229 129 323 128 135 291 180 471 130z"/>
<path d="M4240 4599 c0 -36 -6 -47 -49 -88 -51 -48 -71 -93 -71 -161 1 -93 90
-190 174 -190 13 0 31 -9 41 -20 17 -19 17 -21 0 -40 -10 -11 -22 -20 -27 -20
-5 0 -28 18 -51 40 l-43 39 -59 -59 -59 -60 49 -50 c28 -28 60 -53 73 -57 19
-4 22 -12 22 -49 l0 -44 80 0 80 0 0 41 c0 36 6 47 49 88 51 48 71 93 71 161
-1 93 -90 190 -174 190 -13 0 -31 9 -41 20 -17 19 -17 21 0 40 10 11 22 20 27
20 5 0 28 -18 51 -40 l43 -39 59 59 59 60 -49 50 c-28 28 -60 53 -72 57 -20 4
-23 12 -23 49 l0 44 -80 0 -80 0 0 -41z"/>
</g>
</svg>
