<?xml version="1.0" standalone="no"?>
<!DOCTYPE svg PUBLIC "-//W3C//DTD SVG 20010904//EN"
 "http://www.w3.org/TR/2001/REC-SVG-20010904/DTD/svg10.dtd">
<svg version="1.0" xmlns="http://www.w3.org/2000/svg"
 width="300.000000pt" height="300.000000pt" viewBox="0 0 300.000000 300.000000"
 preserveAspectRatio="xMidYMid meet">
<metadata>
Created by potrace 1.10, written by Peter Selinger 2001-2011
</metadata>
<g transform="translate(0.000000,300.000000) scale(0.100000,-0.100000)"
fill="#000000" stroke="none">
<path d="M1376 2129 c-219 -36 -422 -180 -533 -377 -107 -190 -123 -448 -40
-647 45 -109 157 -261 175 -239 5 5 103 114 218 243 115 129 221 248 236 265
l27 31 1 368 c0 343 -1 367 -17 366 -10 -1 -40 -5 -67 -10z m39 -39 c9 -14 6
-670 -3 -685 -4 -7 -29 -37 -57 -67 -27 -30 -79 -88 -115 -128 -36 -41 -69
-78 -75 -84 -5 -6 -50 -55 -99 -109 -49 -53 -95 -97 -102 -97 -17 0 -102 130
-130 200 -142 351 19 756 363 917 62 29 161 59 200 62 6 1 15 -4 18 -9z"/>
<path d="M1540 1785 l0 -355 356 0 356 0 -7 58 c-32 262 -224 505 -473 599
-56 21 -191 53 -223 53 -5 0 -9 -148 -9 -355z m152 300 c272 -71 484 -310 524
-592 l4 -33 -325 0 -325 0 0 320 0 320 33 0 c18 0 58 -7 89 -15z"/>
<path d="M1830 1115 l231 -230 29 35 c77 93 142 247 155 365 l7 60 -326 0
-326 0 230 -230z m377 179 c10 -27 -18 -125 -63 -221 -45 -94 -66 -123 -89
-123 -14 0 -355 338 -355 352 0 4 113 8 250 8 220 0 251 -2 257 -16z"/>
<path d="M1261 1058 c-178 -198 -231 -263 -220 -269 110 -70 154 -92 223 -116
75 -26 92 -28 236 -28 137 0 163 3 225 24 92 31 137 54 214 109 l63 45 -248
248 c-137 137 -251 249 -254 249 -3 -1 -110 -118 -239 -262z m512 -56 c89 -89
163 -166 165 -171 8 -24 -123 -97 -238 -132 -100 -31 -291 -33 -390 -5 -72 21
-162 63 -200 94 l-24 20 46 54 c67 79 263 295 321 356 l51 52 54 -52 c29 -29
126 -126 215 -216z"/>
</g>
</svg>
