<?xml version="1.0" standalone="no"?>
<!DOCTYPE svg PUBLIC "-//W3C//DTD SVG 20010904//EN"
 "http://www.w3.org/TR/2001/REC-SVG-20010904/DTD/svg10.dtd">
<svg version="1.0" xmlns="http://www.w3.org/2000/svg"
 width="512.000000pt" height="512.000000pt" viewBox="0 0 512.000000 512.000000"
 preserveAspectRatio="xMidYMid meet">
<metadata>
Created by potrace 1.16, written by Peter Selinger 2001-2019
</metadata>
<g transform="translate(0.000000,512.000000) scale(0.100000,-0.100000)"
fill="#000000" stroke="none">
<path d="M240 5111 c-84 -26 -168 -98 -211 -181 l-24 -45 -3 -1797 c-2 -1788
-2 -1797 18 -1851 27 -73 85 -136 162 -178 l63 -34 558 -3 557 -3 0 -99 0 -99
-264 -151 c-152 -86 -276 -164 -290 -181 -40 -47 -48 -92 -45 -240 4 -127 6
-138 31 -176 53 -80 -148 -73 2126 -73 l2030 0 53 28 c42 21 61 40 87 82 l32
54 0 1453 0 1454 -25 49 c-25 50 -69 91 -117 109 l-28 10 -2 823 -3 823 -27
50 c-32 60 -97 124 -158 156 l-45 24 -2225 2 c-1224 1 -2236 -2 -2250 -6z
m4451 -194 c18 -12 44 -38 56 -56 l23 -34 0 -788 0 -789 -743 0 c-806 0 -798
0 -870 -55 -20 -14 -47 -50 -62 -78 l-25 -51 0 -593 0 -593 -1445 0 -1445 0 0
1474 0 1473 23 34 c12 18 38 44 56 56 l34 23 2182 0 2182 0 34 -23z m227
-1863 c20 -14 22 -23 22 -125 l0 -109 -845 0 -845 0 0 103 c0 104 7 128 40
140 8 3 373 6 810 6 705 1 798 -1 818 -15z m22 -1434 l0 -1020 -845 0 -845 0
0 1020 0 1020 845 0 845 0 0 -1020z m-1870 -170 l0 -250 -1393 2 -1394 3 -36
28 c-63 48 -67 63 -67 277 l0 190 1445 0 1445 0 0 -250z m0 -510 l0 -80 -765
0 -765 0 0 80 0 80 765 0 765 0 0 -80z m0 -340 l0 -80 -932 0 -933 0 80 47
c44 25 105 61 135 79 l55 32 798 1 797 1 0 -80z m1870 -284 c0 -82 -3 -108
-16 -120 -14 -14 -102 -16 -826 -16 -741 0 -813 1 -830 17 -15 14 -18 32 -18
120 l0 103 845 0 845 0 0 -104z m-1870 -56 l0 -80 -1065 0 -1065 0 0 80 0 80
1065 0 1065 0 0 -80z"/>
<path d="M3295 4773 c-31 -8 -63 -42 -70 -75 -5 -20 -17 -34 -40 -45 -31 -15
-36 -15 -59 0 -43 29 -88 22 -143 -22 -131 -105 -169 -180 -127 -250 15 -25
15 -30 0 -58 -10 -20 -26 -34 -45 -38 -15 -3 -39 -17 -52 -31 -23 -24 -24 -32
-24 -159 0 -126 1 -135 23 -158 13 -14 38 -28 56 -31 43 -8 62 -55 41 -97 -27
-51 -19 -93 28 -151 23 -29 66 -72 95 -95 58 -48 92 -54 144 -27 28 15 34 15
63 1 21 -10 35 -26 41 -47 5 -18 22 -42 37 -54 25 -19 42 -21 151 -21 142 0
168 10 187 75 15 51 60 70 108 46 60 -31 101 -15 191 74 89 90 105 131 74 191
-24 48 -5 93 46 108 65 19 75 45 75 187 0 141 -13 172 -78 188 -48 12 -67 58
-43 105 9 16 16 41 16 54 0 36 -58 114 -129 175 -67 57 -105 66 -160 37 -43
-22 -86 -2 -100 45 -20 66 -38 75 -170 77 -64 1 -125 -1 -136 -4z m161 -212
c14 -35 23 -42 92 -71 88 -37 150 -47 182 -30 19 10 26 9 42 -7 17 -18 18 -21
3 -49 -20 -39 -19 -57 9 -112 13 -26 29 -64 35 -84 13 -41 53 -78 82 -78 14 0
19 -7 19 -30 0 -26 -6 -32 -39 -46 -41 -16 -35 -6 -114 -196 -9 -22 -8 -34 7
-64 17 -36 17 -38 -1 -56 -18 -17 -21 -17 -59 -2 -40 16 -43 15 -110 -14 -38
-16 -83 -35 -101 -41 -22 -9 -36 -24 -47 -52 -14 -33 -20 -39 -46 -39 -23 0
-30 4 -30 19 0 32 -41 68 -110 96 -118 48 -124 49 -161 31 -31 -16 -34 -15
-52 3 -15 15 -17 23 -8 39 18 34 13 87 -14 140 -14 28 -25 56 -25 64 0 24 -32
60 -66 74 -28 12 -34 20 -34 44 0 24 4 30 21 30 25 0 79 52 79 75 0 10 11 39
25 67 27 53 32 106 14 140 -9 17 -7 24 9 40 16 16 23 18 40 9 33 -18 83 -13
137 14 28 13 57 25 66 25 27 0 67 38 74 70 5 25 11 30 36 30 25 0 32 -6 45
-39z"/>
<path d="M3359 4353 c-55 -9 -133 -66 -165 -121 -55 -92 -55 -183 0 -274 46
-77 107 -112 206 -116 94 -5 151 19 210 85 46 53 60 94 60 178 -1 134 -97 236
-235 248 -27 3 -62 3 -76 0z m81 -183 c19 0 50 -45 50 -74 0 -81 -109 -106
-146 -34 -13 25 -13 35 -3 59 13 32 55 61 77 54 8 -3 18 -5 22 -5z"/>
<path d="M1396 4430 c-48 -15 -82 -57 -116 -146 -18 -46 -37 -84 -43 -84 -5 0
-48 -16 -94 -36 l-84 -36 -72 30 c-145 59 -174 54 -287 -54 -129 -124 -142
-171 -80 -310 l31 -67 -36 -88 c-19 -48 -35 -91 -35 -97 0 -6 -37 -25 -82 -42
-141 -54 -158 -82 -158 -260 0 -182 10 -196 202 -274 21 -8 38 -21 38 -28 0
-7 16 -49 35 -93 l35 -80 -36 -89 c-56 -137 -43 -174 114 -320 82 -77 130 -83
252 -31 l81 35 42 -22 c23 -11 65 -29 92 -39 50 -17 50 -18 89 -108 26 -62 48
-98 67 -112 39 -28 137 -42 237 -35 129 10 155 30 206 162 l28 71 97 39 98 40
77 -33 c134 -57 177 -45 299 79 109 110 118 151 61 283 l-35 83 22 43 c12 24
29 66 39 94 16 48 18 50 92 80 148 60 160 79 160 261 0 170 -15 195 -151 251
-42 17 -79 37 -83 45 -4 7 -22 50 -41 96 l-35 83 34 82 c38 92 41 121 19 175
-17 41 -131 161 -183 193 -49 31 -107 28 -201 -11 l-80 -33 -68 31 c-37 17
-79 34 -93 37 -21 5 -31 20 -55 82 -33 87 -65 130 -112 149 -37 16 -239 18
-287 4z m238 -244 c45 -119 55 -131 133 -156 37 -13 105 -41 151 -63 l83 -40
52 20 c29 11 75 29 103 41 l51 21 48 -49 48 -49 -37 -88 c-20 -48 -36 -98 -36
-111 0 -12 15 -53 34 -90 19 -37 44 -100 56 -139 12 -40 29 -78 37 -85 9 -7
54 -29 102 -48 l86 -35 3 -72 3 -71 -96 -37 c-103 -40 -105 -42 -137 -138 -11
-34 -35 -92 -54 -129 -19 -37 -34 -80 -34 -96 0 -16 16 -66 36 -111 33 -77 34
-84 20 -106 -9 -13 -31 -36 -51 -51 l-35 -26 -84 36 c-47 20 -96 36 -110 36
-15 0 -62 -18 -104 -39 -43 -22 -104 -47 -136 -56 -31 -9 -65 -26 -75 -36 -10
-11 -33 -58 -51 -104 -30 -79 -34 -84 -67 -90 -20 -3 -52 -4 -72 0 -35 6 -37
9 -70 92 -19 47 -42 94 -51 103 -10 10 -48 27 -85 39 -37 12 -99 38 -136 57
-38 19 -80 34 -95 34 -14 0 -64 -16 -111 -37 l-85 -36 -49 50 -50 49 36 83
c19 46 35 96 35 112 0 16 -13 56 -30 89 -16 32 -42 94 -56 137 -14 43 -30 83
-36 90 -5 6 -52 29 -104 49 l-95 38 3 70 3 70 85 34 c47 19 93 41 102 49 9 8
27 45 38 82 12 36 37 97 56 134 19 37 34 83 34 102 0 18 -16 70 -35 116 l-36
83 49 48 48 49 80 -34 c121 -52 121 -52 210 -8 43 21 109 48 145 60 37 12 74
30 82 39 8 9 30 53 47 97 17 44 34 83 36 87 3 4 35 8 72 8 l67 0 29 -74z"/>
<path d="M1411 3919 c-258 -50 -447 -219 -533 -475 -20 -59 -23 -89 -23 -204
1 -125 3 -142 31 -221 72 -202 225 -355 426 -426 99 -35 270 -43 383 -18 187
41 369 184 453 355 53 108 72 190 72 311 0 331 -222 607 -543 673 -82 17 -194
19 -266 5z m238 -184 c320 -76 487 -441 333 -729 -35 -67 -145 -177 -207 -208
-167 -85 -360 -77 -511 20 -272 176 -312 551 -83 780 126 126 299 176 468 137z"/>
<path d="M3993 2301 c-52 -9 -70 -24 -84 -72 -16 -52 -53 -68 -110 -45 -59 24
-90 13 -161 -52 -114 -105 -138 -159 -101 -222 25 -42 4 -86 -48 -100 -64 -18
-74 -43 -74 -193 l0 -129 33 -29 c18 -16 41 -29 52 -29 13 0 26 -12 36 -33 15
-31 15 -36 0 -65 -26 -50 -20 -85 23 -139 103 -129 175 -166 249 -129 39 19
88 -2 97 -43 3 -17 20 -42 37 -56 32 -27 69 -32 203 -26 91 4 121 20 136 72
16 52 59 74 101 53 15 -8 45 -14 66 -14 35 0 48 8 110 65 109 101 131 149 97
215 -23 45 -5 82 55 107 41 18 50 26 59 59 6 22 11 82 11 134 0 121 -16 159
-77 178 -52 17 -71 57 -48 102 26 50 19 88 -25 145 -38 49 -100 106 -144 132
-28 17 -55 16 -90 -2 -15 -8 -34 -15 -42 -15 -30 0 -62 24 -67 49 -9 44 -39
72 -87 82 -52 9 -146 10 -207 0z m145 -215 c18 -39 26 -46 73 -61 30 -10 70
-26 89 -36 42 -23 72 -24 109 -4 26 13 30 13 44 -3 15 -16 15 -22 1 -60 -14
-41 -13 -46 14 -110 16 -37 35 -82 42 -99 8 -22 24 -38 51 -50 31 -13 39 -22
39 -42 0 -21 -8 -29 -40 -43 -22 -9 -43 -25 -46 -35 -4 -10 -18 -45 -32 -78
-30 -74 -38 -126 -22 -155 10 -19 9 -26 -8 -43 -18 -18 -24 -19 -51 -7 -39 16
-67 10 -165 -31 -80 -34 -88 -42 -106 -91 -15 -44 -51 -38 -75 14 -22 46 -22
46 -115 84 -85 34 -114 39 -150 24 -26 -11 -33 -10 -49 4 -17 16 -17 19 -3 59
15 41 14 45 -6 87 -12 25 -30 68 -39 95 -15 42 -25 53 -60 70 -33 16 -42 26
-43 45 0 20 9 30 43 45 35 17 45 28 60 70 9 28 27 70 39 95 20 42 21 46 6 87
-14 40 -14 43 3 59 16 14 24 15 45 6 38 -18 66 -15 135 17 35 15 76 33 92 39
25 11 36 26 51 75 3 10 15 17 30 17 20 0 29 -9 44 -44z"/>
<path d="M3985 1856 c-95 -45 -144 -125 -145 -237 0 -54 5 -77 28 -120 113
-217 439 -165 483 76 39 206 -176 371 -366 281z m161 -179 c20 -17 27 -33 27
-57 0 -39 -40 -80 -79 -80 -66 0 -100 98 -48 139 35 27 66 26 100 -2z"/>
<path d="M2243 1516 c-22 -19 -28 -32 -28 -66 0 -34 6 -47 28 -66 28 -24 32
-24 228 -24 124 0 208 4 221 11 26 14 48 67 41 102 -3 15 -17 36 -31 47 -23
18 -41 20 -228 20 -200 0 -203 0 -231 -24z"/>
</g>
</svg>
