<?xml version="1.0" standalone="no"?>
<!DOCTYPE svg PUBLIC "-//W3C//DTD SVG 20010904//EN"
 "http://www.w3.org/TR/2001/REC-SVG-20010904/DTD/svg10.dtd">
<svg version="1.0" xmlns="http://www.w3.org/2000/svg"
 width="512.000000pt" height="512.000000pt" viewBox="0 0 512.000000 512.000000"
 preserveAspectRatio="xMidYMid meet">
<metadata>
Created by potrace 1.16, written by Peter Selinger 2001-2019
</metadata>
<g transform="translate(0.000000,512.000000) scale(0.100000,-0.100000)"
fill="#000000" stroke="none">
<path d="M503 5026 c-36 -16 -61 -51 -73 -98 -4 -18 -44 -157 -89 -308 -45
-151 -98 -336 -118 -410 -19 -74 -73 -261 -120 -415 -110 -362 -116 -434 -46
-497 17 -15 145 -69 597 -250 169 -68 222 -56 267 61 l22 56 96 -95 c59 -59
259 -222 521 -425 234 -181 493 -384 575 -449 188 -150 218 -168 303 -173 58
-4 71 -2 102 19 40 27 79 81 87 121 3 15 7 27 10 27 2 0 38 -23 80 -52 118
-79 227 -105 326 -77 56 15 116 73 129 125 l12 42 40 -27 c80 -54 150 -65 215
-32 82 42 136 138 130 230 -3 43 -2 50 11 44 28 -15 143 -8 177 10 48 25 97
78 124 133 30 62 37 171 16 243 l-15 51 55 0 c64 0 120 23 136 57 10 23 10 23
61 -26 100 -94 182 -95 381 -7 72 32 173 80 225 106 52 26 136 65 185 86 65
28 104 52 142 89 l53 51 0 87 c0 84 -2 90 -69 249 -160 377 -569 1219 -626
1286 -96 114 -225 99 -385 -45 -62 -57 -87 -72 -146 -91 -38 -12 -133 -49
-210 -83 -76 -34 -155 -67 -174 -74 -37 -14 -70 -57 -70 -90 1 -11 9 -38 20
-60 10 -22 18 -40 17 -41 -1 -1 -108 25 -237 58 -280 70 -574 117 -765 120
-154 3 -410 -7 -672 -26 -103 -8 -233 -18 -288 -21 l-100 -7 3 101 c2 59 -1
108 -8 120 -27 51 -297 177 -571 266 -163 54 -277 67 -336 41z m495 -205 c182
-61 339 -111 350 -111 12 0 23 -4 26 -9 12 -19 -81 -299 -277 -836 -255 -697
-285 -775 -305 -775 -8 0 -144 51 -301 114 -157 62 -302 119 -322 126 -20 7
-47 21 -60 31 -35 26 -30 79 24 244 75 229 272 876 385 1265 9 30 21 59 26 63
29 21 139 -6 454 -112z m3302 14 c37 -19 40 -25 230 -395 175 -342 348 -709
442 -943 70 -172 71 -197 10 -247 -20 -17 -86 -55 -147 -84 -505 -245 -529
-255 -579 -242 -41 10 -95 65 -126 125 -34 67 -120 273 -263 626 -58 143 -153
375 -211 515 -58 140 -106 260 -106 265 0 6 46 34 103 64 124 65 257 143 317
186 81 59 244 145 273 145 15 0 41 -7 57 -15z m-2355 -404 c-6 -5 -30 -26 -55
-46 -64 -53 -123 -134 -156 -212 -25 -60 -29 -80 -29 -174 0 -102 1 -108 38
-181 62 -127 175 -206 308 -216 107 -7 166 19 315 141 33 27 76 57 97 68 120
63 265 34 431 -85 77 -55 711 -625 788 -708 106 -114 159 -260 128 -353 -17
-51 -74 -113 -116 -124 -42 -12 -88 0 -142 37 -22 15 -167 135 -322 267 -267
227 -376 314 -392 315 -36 1 31 -97 151 -225 131 -139 431 -406 498 -443 14
-8 15 -15 5 -38 -5 -16 -13 -49 -15 -73 -6 -47 -27 -83 -70 -115 -23 -17 -31
-18 -66 -8 -58 18 -239 162 -546 436 -148 132 -198 168 -238 170 -28 1 -32 -3
-35 -26 -5 -42 21 -71 162 -185 240 -195 439 -367 426 -371 -6 -2 -20 -24 -30
-47 -23 -53 -56 -77 -118 -82 -97 -10 -211 59 -403 244 -112 107 -145 129
-186 121 -54 -10 -13 -88 101 -190 50 -46 90 -88 90 -96 -3 -23 -48 -81 -72
-91 -56 -26 -103 -6 -247 103 -395 298 -966 753 -1099 875 -54 50 -114 101
-133 113 -20 14 -32 29 -29 38 3 8 75 202 161 430 86 228 178 479 203 557 l47
143 50 0 c28 1 127 9 220 19 193 21 294 26 280 12z m706 -10 c85 -11 222 -31
304 -45 129 -22 240 -36 501 -62 l51 -5 61 -137 c61 -139 262 -609 391 -916
49 -116 68 -173 61 -180 -5 -5 -10 -24 -10 -41 0 -50 -11 -58 -71 -52 -42 4
-58 1 -73 -12 -17 -15 -19 -14 -35 9 -44 68 -132 158 -282 288 -232 203 -337
295 -469 411 -157 139 -243 195 -346 227 -73 23 -97 26 -168 22 -99 -7 -151
-30 -281 -128 -124 -93 -167 -114 -235 -113 -70 0 -117 20 -175 74 -60 55 -86
108 -93 185 -14 177 84 323 281 419 159 76 308 91 588 56z"/>
<path d="M420 3819 c-41 -17 -70 -50 -70 -80 0 -15 -6 -29 -14 -32 -20 -8 -56
-88 -56 -126 0 -38 29 -97 62 -128 27 -26 92 -42 168 -43 156 0 240 86 228
234 -5 61 -33 106 -95 153 -32 25 -46 28 -117 30 -45 2 -92 -2 -106 -8z m186
-122 c65 -59 57 -144 -18 -183 -39 -20 -136 -14 -173 10 -27 18 -29 37 -17
130 6 44 10 50 42 61 19 7 56 13 83 14 40 1 52 -4 83 -32z"/>
<path d="M4333 3666 c-41 -19 -114 -118 -125 -173 -12 -53 9 -124 58 -199 49
-73 82 -88 180 -81 129 9 185 25 220 63 36 37 45 77 32 142 -18 97 -97 209
-173 243 -48 22 -146 24 -192 5z m175 -105 c67 -36 127 -187 88 -220 -22 -18
-193 -38 -214 -25 -31 20 -76 121 -80 183 l-4 58 68 15 c68 14 99 12 142 -11z"/>
<path d="M1882 1563 c-18 -9 -44 -30 -56 -47 -191 -261 -272 -359 -504 -613
l-167 -182 -50 7 c-77 10 -141 4 -196 -19 -50 -22 -99 -69 -99 -94 0 -9 -6
-12 -15 -9 -25 10 -62 -22 -80 -70 -45 -119 39 -311 168 -382 45 -25 63 -29
127 -28 128 1 216 56 265 165 46 103 35 245 -25 329 l-21 29 38 38 c77 78 536
622 646 766 40 53 50 110 21 121 -19 7 -13 9 -52 -11z m-754 -966 c120 -114
98 -294 -44 -363 -42 -20 -64 -25 -95 -21 -127 17 -232 199 -188 326 7 20 18
31 30 31 11 0 34 7 51 16 118 61 191 64 246 11z"/>
<path d="M2947 1573 c-18 -17 -5 -73 26 -117 190 -268 261 -393 357 -626 l48
-119 -36 -12 c-56 -17 -107 -54 -121 -86 -8 -19 -23 -32 -43 -39 -52 -15 -73
-54 -73 -137 0 -60 5 -83 31 -137 64 -132 153 -200 265 -200 158 0 269 92 299
250 26 139 -57 311 -167 343 l-45 13 -47 115 c-110 264 -340 664 -421 733 -31
25 -60 33 -73 19z m584 -999 c45 -43 83 -128 82 -184 -1 -62 -45 -144 -94
-177 -105 -70 -221 -26 -288 109 -49 97 -41 205 18 227 14 5 53 21 86 36 81
35 152 31 196 -11z"/>
<path d="M2373 1454 c-16 -25 -16 -33 5 -158 33 -193 45 -372 33 -496 -5 -58
-14 -106 -20 -108 -57 -19 -118 -62 -136 -94 -14 -26 -27 -38 -42 -38 -50 0
-89 -81 -80 -163 13 -104 104 -245 187 -287 115 -59 281 -17 358 89 17 23 38
71 48 107 15 58 16 76 6 136 -21 122 -90 217 -173 238 l-46 12 -7 211 c-8 235
-30 487 -48 530 -20 50 -59 60 -85 21z m204 -905 c90 -87 102 -208 28 -305
-49 -65 -124 -93 -195 -74 -85 23 -170 149 -169 250 1 75 9 91 55 106 21 7 66
24 99 38 81 36 133 31 182 -15z"/>
</g>
</svg>
