<?xml version="1.0" standalone="no"?>
<!DOCTYPE svg PUBLIC "-//W3C//DTD SVG 20010904//EN"
 "http://www.w3.org/TR/2001/REC-SVG-20010904/DTD/svg10.dtd">
<svg version="1.0" xmlns="http://www.w3.org/2000/svg"
 width="300.000000pt" height="300.000000pt" viewBox="0 0 300.000000 300.000000"
 preserveAspectRatio="xMidYMid meet">
<metadata>
Created by potrace 1.10, written by Peter Selinger 2001-2011
</metadata>
<g transform="translate(0.000000,300.000000) scale(0.100000,-0.100000)"
fill="#000000" stroke="none">
<path d="M1760 1565 c0 -580 2 -645 16 -645 11 0 15 -8 12 -27 l-3 -28 153 -3
152 -3 0 646 c0 565 -2 645 -15 645 -13 0 -15 -78 -17 -617 l-3 -618 -122 0
c-68 0 -126 4 -132 10 -5 6 -12 102 -15 215 -8 277 -8 1028 -1 1040 8 13 242
13 250 0 10 -17 25 -11 25 10 0 19 -7 20 -150 20 l-150 0 0 -645z"/>
<path d="M1300 1335 c0 -362 2 -415 15 -415 10 0 15 -10 15 -30 l0 -30 150 0
150 0 0 420 c0 365 -2 420 -15 420 -13 0 -15 -53 -17 -392 l-3 -393 -122 0
c-68 0 -126 4 -132 10 -16 16 -27 795 -12 805 12 7 193 4 244 -5 19 -3 27 0
27 10 0 13 -24 15 -150 15 l-150 0 0 -415z"/>
<path d="M840 1223 c0 -263 2 -303 15 -303 10 0 15 -10 15 -30 l0 -31 150 3
150 3 3 303 c2 263 0 302 -13 302 -13 0 -15 -37 -15 -275 0 -220 -3 -276 -13
-280 -19 -7 -183 -6 -221 1 -21 5 -33 13 -36 28 -2 11 -6 141 -10 287 -5 239
-4 267 11 273 8 3 67 6 129 6 98 0 115 -2 124 -17 10 -17 10 -17 11 0 0 9 1
19 3 22 1 3 -67 7 -151 8 l-152 2 0 -302z"/>
</g>
</svg>
